<svg width="100" height="100" viewBox="0 0 100 100" fill="none" xmlns="http://www.w3.org/2000/svg">
<path fill-rule="evenodd" clip-rule="evenodd" d="M50 11.4584C47.2596 11.4584 44.5629 12.3402 37.8359 14.643L35.4492 15.4599C29.1467 17.6173 24.5504 19.1919 21.3233 20.5029C19.7125 21.1573 18.5454 21.7057 17.7262 22.1814C17.3218 22.4163 17.0431 22.6101 16.857 22.7614C16.6992 22.8897 16.639 22.9623 16.6304 22.9729C16.6223 22.986 16.5705 23.0725 16.4976 23.2773C16.4143 23.5111 16.322 23.8462 16.2321 24.3128C16.0502 25.2571 15.9123 26.5542 15.817 28.3039C15.6262 31.8088 15.625 36.7014 15.625 43.403V49.9642C15.625 71.5271 31.7496 82.1396 42.495 86.8334C44.0429 87.5096 44.9367 87.8921 45.9317 88.1467C46.8821 88.39 48.0417 88.5417 50 88.5417C51.9583 88.5417 53.1179 88.39 54.0683 88.1467C55.0633 87.8921 55.9571 87.5096 57.505 86.8334C68.2504 82.1396 84.375 71.5271 84.375 49.9642V43.403C84.375 36.7014 84.3737 31.8088 84.1829 28.3039C84.0879 26.5542 83.95 25.2571 83.7679 24.3128C83.6779 23.8462 83.5858 23.5111 83.5025 23.2773C83.4296 23.0724 83.3775 22.9859 83.3696 22.9729C83.3608 22.9622 83.3008 22.8896 83.1429 22.7614C82.9571 22.6101 82.6783 22.4163 82.2738 22.1814C81.4546 21.7057 80.2875 21.1573 78.6767 20.5029C75.4496 19.1919 70.8533 17.6173 64.5508 15.4599L62.1642 14.643C55.4371 12.3402 52.7404 11.4584 50 11.4584ZM36.3475 8.54637C42.3637 6.48579 46.0937 5.20837 50 5.20837C53.9062 5.20837 57.6362 6.48579 63.6525 8.54637C63.8292 8.60683 64.0075 8.66796 64.1883 8.72979L66.6833 9.58392C72.8558 11.6967 77.6192 13.3272 81.0292 14.7125C82.7467 15.4103 84.2233 16.0862 85.4125 16.7767C86.5571 17.4413 87.705 18.2702 88.485 19.3815C89.2558 20.4799 89.6546 21.8302 89.905 23.1301C90.1654 24.4815 90.3225 26.1027 90.4237 27.964C90.625 31.66 90.625 36.7234 90.625 43.2909V49.9642C90.625 75.385 71.425 87.573 60.0071 92.5609L59.8942 92.61C58.4783 93.2288 57.1475 93.81 55.6183 94.2017C54.0037 94.615 52.2887 94.7917 50 94.7917C47.7112 94.7917 45.9962 94.615 44.3817 94.2017C42.8525 93.81 41.5218 93.2288 40.106 92.61L39.993 92.5609C28.5751 87.573 9.375 75.385 9.375 49.9642V43.2913C9.375 36.7236 9.375 31.6601 9.57625 27.964C9.67758 26.1027 9.83463 24.4815 10.095 23.1301C10.3455 21.8302 10.7442 20.4799 11.5151 19.3815C12.2951 18.2702 13.4431 17.4413 14.5874 16.7767C15.7765 16.0862 17.2532 15.4103 18.971 14.7125C22.3808 13.3272 27.1443 11.6967 33.3165 9.58396L35.8118 8.72979C35.9924 8.66796 36.1709 8.60683 36.3475 8.54637Z" fill="#323232" stroke="#323232" stroke-width="4.16667"/>
<path d="M69.0893 43.0358L73.1107 43.9858C73.3456 44.0413 73.5549 44.1744 73.7046 44.3637C73.8543 44.553 73.9358 44.7873 73.9357 45.0286V54.1822C73.9358 54.4292 73.8505 54.6686 73.6943 54.8599C73.5381 55.0513 73.3206 55.1828 73.0786 55.2322L69.1357 56.0286C68.9632 56.0641 68.8021 56.1416 68.6666 56.2542C68.5312 56.3668 68.4256 56.5111 68.3592 56.6742C68.2928 56.8374 68.2677 57.0144 68.286 57.1896C68.3043 57.3648 68.3656 57.5327 68.4643 57.6786L70.5715 60.8036C70.7119 61.011 70.7752 61.2611 70.7504 61.5103C70.7256 61.7595 70.6143 61.9922 70.4357 62.1679L63.8072 68.6465C63.6354 68.8147 63.412 68.9203 63.173 68.9462C62.934 68.9721 62.6932 68.9168 62.4893 68.7893L58.6536 66.3822C58.5075 66.2905 58.3414 66.2354 58.1694 66.2216C57.9974 66.2079 57.8247 66.2358 57.6659 66.3032C57.507 66.3705 57.3668 66.4752 57.2571 66.6083C57.1474 66.7415 57.0714 66.8991 57.0357 67.0679L56.2143 70.9143C56.163 71.1532 56.0316 71.3673 55.842 71.5212C55.6523 71.6752 55.4157 71.7597 55.1715 71.7608H45.8143C45.5766 71.7602 45.3458 71.6806 45.1583 71.5344C44.9708 71.3883 44.8372 71.184 44.7786 70.9536L43.7607 66.975C43.7187 66.8106 43.6382 66.6584 43.5258 66.5312C43.4135 66.4039 43.2725 66.3052 43.1145 66.2431C42.9565 66.181 42.786 66.1574 42.6171 66.1741C42.4482 66.1908 42.2856 66.2475 42.1429 66.3393L38.7286 68.5465C38.5238 68.6794 38.2798 68.7385 38.0368 68.7138C37.7939 68.6891 37.5667 68.5822 37.3929 68.4108L30.775 61.9036C30.5981 61.7295 30.4871 61.4993 30.4611 61.2524C30.435 61.0055 30.4955 60.7573 30.6322 60.55L33.0179 56.9143C33.1135 56.7683 33.1719 56.6011 33.1881 56.4273C33.2044 56.2535 33.1779 56.0783 33.111 55.9171C33.0441 55.7559 32.9389 55.6134 32.8044 55.5021C32.6699 55.3908 32.5102 55.3141 32.3393 55.2786L28.3643 54.45C28.123 54.3999 27.9063 54.2681 27.7508 54.0768C27.5953 53.8856 27.5105 53.6465 27.5107 53.4V44.2929C27.5112 44.0475 27.5958 43.8097 27.7505 43.6192C27.9052 43.4288 28.1207 43.2972 28.3607 43.2465L32.6 42.3393C32.7714 42.3034 32.9314 42.2259 33.0659 42.1138C33.2005 42.0016 33.3055 41.8582 33.3717 41.6961C33.438 41.534 33.4635 41.3581 33.446 41.1838C33.4285 41.0095 33.3686 40.8422 33.2715 40.6965L31.1715 37.5322C31.0348 37.3261 30.9737 37.079 30.9984 36.833C31.0231 36.5869 31.1322 36.357 31.3072 36.1822L37.9 29.6179C38.0696 29.4491 38.2908 29.342 38.5283 29.3135C38.7658 29.285 39.0061 29.3369 39.2107 29.4608L42.7572 31.6179C42.9008 31.7052 43.0629 31.7575 43.2304 31.7706C43.398 31.7837 43.5662 31.7571 43.7216 31.6932C43.877 31.6292 44.0152 31.5296 44.125 31.4023C44.2348 31.2751 44.3131 31.1238 44.3536 30.9608L45.2715 27.2643C45.3296 27.0327 45.4634 26.8271 45.6517 26.6802C45.84 26.5334 46.0719 26.4536 46.3107 26.4536L55.6679 26.475C55.9158 26.4763 56.1556 26.5635 56.3464 26.7217C56.5372 26.88 56.6672 27.0995 56.7143 27.3429L57.525 31.4715C57.5582 31.6423 57.6324 31.8026 57.7414 31.9383C57.8503 32.074 57.9907 32.1812 58.1504 32.2504C58.31 32.3197 58.4842 32.3491 58.6577 32.3359C58.8313 32.3228 58.999 32.2676 59.1465 32.175L62.6393 29.975C62.842 29.8475 63.0816 29.7916 63.3199 29.8162C63.5581 29.8408 63.7812 29.9445 63.9536 30.1108L70.6393 36.5465C70.8198 36.7215 70.9331 36.9544 70.9592 37.2045C70.9853 37.4545 70.9226 37.7058 70.7822 37.9143L68.4465 41.3965C68.3493 41.5403 68.2885 41.7055 68.2694 41.878C68.2502 42.0505 68.2733 42.2251 68.3365 42.3867C68.3997 42.5483 68.5013 42.6922 68.6324 42.8058C68.7636 42.9195 68.9204 42.9997 69.0893 43.0393V43.0358ZM50.7215 39.3929C52.1723 39.3929 53.6046 39.7182 54.9131 40.3448C56.2216 40.9715 57.3729 41.8836 58.2823 43.014C59.1917 44.1445 59.8361 45.4644 60.168 46.8768C60.4998 48.2891 60.5108 49.7579 60.2 51.175C60.1129 51.5743 59.8707 51.9226 59.5268 52.1433C59.1829 52.3639 58.7653 52.439 58.3661 52.3518C57.9669 52.2647 57.6186 52.0225 57.3979 51.6786C57.1772 51.3347 57.1022 50.9171 57.1893 50.5179C57.3997 49.551 57.3911 48.5493 57.1643 47.5861C56.9375 46.6229 56.4981 45.7226 55.8784 44.9512C55.2587 44.1798 54.4742 43.5568 53.5826 43.1277C52.6909 42.6986 51.7146 42.4744 50.725 42.4715C49.7398 42.4726 48.7673 42.6935 47.8783 43.1182C46.9893 43.5429 46.2062 44.1606 45.5863 44.9263C44.9663 45.692 44.525 46.5864 44.2946 47.5443C44.0642 48.5022 44.0505 49.4994 44.2544 50.4633C44.4583 51.4272 44.8747 52.3334 45.4733 53.116C46.0719 53.8985 46.8376 54.5376 47.7145 54.9866C48.5915 55.4356 49.5576 55.6833 50.5424 55.7116C51.5272 55.7399 52.5059 55.548 53.4072 55.15C53.592 55.068 53.7911 55.0231 53.9932 55.018C54.1954 55.0129 54.3965 55.0476 54.5852 55.1202C54.7739 55.1929 54.9465 55.302 55.093 55.4413C55.2396 55.5806 55.3572 55.7474 55.4393 55.9322C55.5214 56.117 55.5663 56.3161 55.5714 56.5182C55.5765 56.7204 55.5417 56.9215 55.4691 57.1102C55.3965 57.2989 55.2874 57.4715 55.1481 57.618C55.0088 57.7646 54.842 57.8823 54.6572 57.9643C53.3363 58.5511 51.901 58.8355 50.4562 58.7965C49.0114 58.7576 47.5935 58.3964 46.3061 57.7393C45.0188 57.0822 43.8945 56.1458 43.0153 54.9986C42.1362 53.8513 41.5245 52.5222 41.2248 51.1082C40.9252 49.6943 40.9452 48.2312 41.2834 46.826C41.6216 45.4208 42.2694 44.1088 43.1796 42.986C44.0897 41.8632 45.2392 40.9579 46.544 40.3363C47.8489 39.7146 49.2761 39.3923 50.7215 39.3929ZM64.1357 55.5072L64.8107 54.2322C64.8849 54.0917 64.9894 53.9695 65.1167 53.8743C65.2439 53.7792 65.3907 53.7136 65.5465 53.6822L69.8179 52.8215C70.0605 52.7728 70.2789 52.6416 70.4358 52.4502C70.5927 52.2588 70.6785 52.019 70.6786 51.7715V47.3572C70.6786 47.1209 70.6006 46.8912 70.4565 46.7039C70.3125 46.5166 70.1106 46.3821 69.8822 46.3215L65.6215 45.1893C65.4492 45.1436 65.291 45.0557 65.1613 44.9335C65.0316 44.8112 64.9344 44.6586 64.8786 44.4893L64.4036 43.0358C64.3546 42.8855 64.3394 42.7262 64.3591 42.5694C64.3789 42.4125 64.4331 42.262 64.5179 42.1286L66.7965 38.55C66.9295 38.3408 66.9859 38.0918 66.956 37.8456C66.926 37.5995 66.8116 37.3713 66.6322 37.2L63.3465 34.0429C63.1778 33.8811 62.9609 33.7789 62.7288 33.7518C62.4967 33.7247 62.2621 33.7743 62.0607 33.8929L58.3786 36.0643C58.2255 36.1548 58.0523 36.2058 57.8746 36.2127C57.6969 36.2195 57.5203 36.182 57.3607 36.1036L55.7572 35.3179C55.6116 35.2462 55.4842 35.1425 55.3846 35.0144C55.285 34.8863 55.2158 34.7373 55.1822 34.5786L54.3215 30.5358C54.2706 30.2951 54.1385 30.0792 53.9473 29.9244C53.7561 29.7696 53.5175 29.6854 53.2715 29.6858H48.6072C48.3729 29.6859 48.1451 29.7628 47.9587 29.9047C47.7723 30.0466 47.6375 30.2457 47.575 30.4715L46.3965 34.7143C46.3506 34.8806 46.2653 35.0333 46.1478 35.1595C46.0303 35.2857 45.884 35.3817 45.7215 35.4393L44.525 35.8572C44.3745 35.9105 44.214 35.9295 44.0552 35.9129C43.8964 35.8962 43.7433 35.8442 43.6072 35.7608L39.8357 33.4393C39.6319 33.3132 39.3916 33.259 39.1533 33.2856C38.915 33.3121 38.6926 33.4178 38.5215 33.5858L35.3143 36.7608C35.1372 36.9367 35.0271 37.1689 35.003 37.4173C34.9789 37.6657 35.0423 37.9148 35.1822 38.1215L37.3822 41.3643C37.4908 41.5243 37.5542 41.7106 37.5655 41.9037C37.5768 42.0967 37.5357 42.2892 37.4465 42.4608L36.625 44.0393C36.5538 44.1755 36.4541 44.2948 36.3327 44.3891C36.2113 44.4834 36.0711 44.5505 35.9215 44.5858L31.5929 45.6072C31.3574 45.662 31.1473 45.7949 30.9969 45.9842C30.8464 46.1736 30.7645 46.4082 30.7643 46.65V51.0358C30.7643 51.2828 30.8496 51.5222 31.0057 51.7135C31.1619 51.9049 31.3795 52.0364 31.6215 52.0858L35.7215 52.9429C35.9025 52.9807 36.0706 53.0647 36.2096 53.1867C36.3485 53.3088 36.4535 53.4647 36.5143 53.6393L37.0679 55.2393C37.1207 55.3909 37.1389 55.5523 37.1209 55.7118C37.103 55.8713 37.0495 56.0247 36.9643 56.1608L34.5857 59.9536C34.4559 60.1611 34.4011 60.4068 34.4303 60.6498C34.4596 60.8929 34.5711 61.1185 34.7465 61.2893L37.9822 64.4429C38.1551 64.6109 38.3795 64.7156 38.6193 64.7403C38.8591 64.7649 39.1002 64.7079 39.3036 64.5786L43.0822 62.175C43.2394 62.0753 43.4199 62.0182 43.6059 62.0094C43.7919 62.0006 43.977 62.0405 44.1429 62.125L45.4929 62.8143C45.6303 62.8836 45.7512 62.9816 45.8474 63.1018C45.9435 63.222 46.0126 63.3615 46.05 63.5108L47.0893 67.7179C47.1467 67.9502 47.2803 68.1566 47.4686 68.3041C47.657 68.4517 47.8893 68.532 48.1286 68.5322H52.8C53.0409 68.5324 53.2748 68.4515 53.464 68.3024C53.6532 68.1534 53.7867 67.945 53.8429 67.7108L54.8572 63.5679C54.8977 63.4014 54.9775 63.2471 55.09 63.1178C55.2025 62.9885 55.3443 62.8882 55.5036 62.825L56.8679 62.2858C57.0236 62.2239 57.1916 62.1995 57.3584 62.2144C57.5253 62.2293 57.6863 62.2831 57.8286 62.3715L61.8393 64.8608C62.0428 64.9874 62.2829 65.0421 62.5211 65.0162C62.7594 64.9903 62.9821 64.8853 63.1536 64.7179L66.3857 61.5679C66.5629 61.3949 66.6747 61.1658 66.702 60.9197C66.7294 60.6736 66.6706 60.4256 66.5357 60.2179L64.1857 56.5858C64.082 56.4261 64.0227 56.2417 64.0139 56.0515C64.0051 55.8613 64.0472 55.6722 64.1357 55.5036V55.5072Z" fill="#E30010"/>
</svg>
